<svg xmlns="http://www.w3.org/2000/svg" version="1.1" xmlns:xlink="http://www.w3.org/1999/xlink" xmlns:svgjs="http://svgjs.dev/svgjs" width="100%" height="100%" viewBox="0 0 1000 600"><rect width="1000" height="600" x="0" y="0" fill="#000000"/><g><rect width="333.3333333333333" height="333.3333333333333" y="180.3154485392943" fill="#ffffff" transform="matrix(0.7906728401949039,0,0,0.7906728401949039,0,25.6506776869077)" x="158.09320068359375"/><path d="M370.9829231177266 390.35341117709703L370.9829231177266 390.35341117709703Q380.6514875148268 394.3184375860025 380.6514875148268 401.1199828874326L380.6514875148268 401.1199828874326Q380.6514875148268 409.0195355020981 368.1159040220565 415.51607877207397Q355.61082073243165 421.98212183890433 337.15819782944857 421.98212183890433L337.15819782944857 421.98212183890433Q306.20049163684064 421.98212183890433 287.5343673118396 401.24198370001426Q268.8682429868386 380.4713453579788 268.8682429868386 346.89062169486425L268.8682429868386 346.89062169486425Q268.8682429868386 311.75438767133284 287.5343673118396 291.8682552205148Q306.20049163684064 271.9821227696967 338.04270372066594 271.9821227696967L338.04270372066594 271.9821227696967Q355.1533176852502 271.9821227696967 366.8043952868032 278.9056688837085Q378.4554728883561 285.8292149977203 378.4554728883561 295.9247822388565L378.4554728883561 295.9247822388565Q378.4554728883561 304.9223421667573 365.9198893955858 306.90485537121003L365.9198893955858 306.90485537121003Q361.7413615646624 296.1382836608745 352.74380163676153 290.77024790727944Q343.7462417088607 285.40221215368433 333.6506744677245 285.40221215368433L333.6506744677245 285.40221215368433Q313.00203693827075 285.40221215368433 299.9479499920282 301.7503210396329Q286.86336284264024 318.09842992558157 286.86336284264024 342.49859244192277L286.86336284264024 342.49859244192277Q286.86336284264024 370.5892795388607 300.0394506014645 389.5909060984614Q313.21553836028875 408.5925326580621 336.9446964074306 408.5925326580621L336.9446964074306 408.5925326580621Q347.46726649260273 408.5925326580621 356.5868272330853 403.98700198310274Q365.7063879735678 399.3509711049979 370.9829231177266 390.35341117709703Z " fill="#000000" transform="matrix(0.7906728401949039,0,0,0.7906728401949039,0,25.6506776869077)"/><path d="M597.5013002072814 288.53196544283173L597.5013002072814 288.53196544283173Q598.3190572069091 295.268725487384 598.3190572069091 331.9899088516202L598.3190572069091 331.9899088516202L616.2707703892133 331.9899088516202Q635.0402405711452 331.9899088516202 643.1788697579166 331.1332110424864L643.1788697579166 331.1332110424864Q644.0355675670504 333.3917779938392 644.0355675670504 337.3247997539535L644.0355675670504 337.3247997539535Q644.0355675670504 342.9322763228295 641.6601781871793 345.0350800361579Q639.2458479978022 347.13788374948643 634.2224835715176 347.410469416029L634.2224835715176 347.410469416029Q628.342421336099 347.68305508257157 618.2178108645174 347.68305508257157L618.2178108645174 347.68305508257157L598.3190572069091 347.68305508257157Q598.3190572069091 392.81545330012165 599.9935120156706 402.0833659625693L599.9935120156706 402.0833659625693Q610.1181224872522 402.62853729565455 616.2707703892133 402.62853729565455L616.2707703892133 402.62853729565455Q653.264539419992 402.62853729565455 664.7910190337925 397.6051728693698L664.7910190337925 397.6051728693698Q666.7380595090967 402.62853729565455 666.7380595090967 408.23601386453043L666.7380595090967 408.23601386453043Q666.7380595090967 412.75314776723604 664.4794925577439 414.70018824254015L664.4794925577439 414.70018824254015Q660.2738851310869 417.7765121935208 626.3564400512887 417.7765121935208L626.3564400512887 417.7765121935208Q619.6196800067364 417.7765121935208 604.7832315849189 417.6596897650025Q589.9078423535952 417.5039265269782 589.3626710205101 417.5039265269782L589.3626710205101 417.5039265269782Q582.3533253094151 417.23134086043564 579.9779359295441 414.4276025759976Q577.563605740167 411.62386429155964 577.563605740167 405.1596899135499L577.563605740167 405.1596899135499Q577.563605740167 401.2266681534356 577.8751322162157 387.9089113023552Q578.1477178827581 374.5911544512748 578.1477178827581 367.0366374070948L578.1477178827581 367.0366374070948L578.1477178827581 324.1238653313914Q578.1477178827581 292.1924015364035 574.7598674557289 273.96810268755667L574.7598674557289 273.96810268755667Q602.2520789670234 271.9821214027465 626.0838543847462 271.9821214027465L626.0838543847462 271.9821214027465Q660.0012994645444 271.9821214027465 664.2069068912012 275.3699718297757L664.2069068912012 275.3699718297757Q666.465473842554 277.31701230507986 666.465473842554 281.79520539827934L666.465473842554 281.79520539827934Q666.465473842554 287.40268196715533 664.4794925577439 292.4649872029461L664.4794925577439 292.4649872029461Q651.0449132781453 287.98679410974654 622.4234182911744 287.98679410974654L622.4234182911744 287.98679410974654Q611.5199916294712 287.98679410974654 597.5013002072814 288.53196544283173ZM701.7847880645713 368.71109221585635L701.7847880645713 368.71109221585635L701.7847880645713 323.3061083317637Q701.7847880645713 294.1394420117076 700.1103332558098 272.5662335453377L700.1103332558098 272.5662335453377Q704.5885263490093 271.9821214027465 711.0527007270191 271.9821214027465L711.0527007270191 271.9821214027465Q723.9421086735324 271.9821214027465 723.9421086735324 280.39333625606037L723.9421086735324 280.39333625606037Q723.9421086735324 281.52261973173677 723.5137597689657 289.07713677591687Q723.0854108643987 296.670594629603 722.5402395313135 307.88554776735486Q721.9561273887223 319.1005009051068 721.9561273887223 329.18617056718216L721.9561273887223 329.18617056718216L721.9561273887223 348.5397528917054Q721.9561273887223 392.81545330012165 723.66952300699 402.0833659625693L723.66952300699 402.0833659625693Q733.171080526474 402.62853729565455 738.5059714288075 402.62853729565455L738.5059714288075 402.62853729565455Q773.5526999842821 402.62853729565455 783.9498961224062 397.6051728693698L783.9498961224062 397.6051728693698Q785.6243509311678 402.94006377170314 785.6243509311678 408.23601386453043L785.6243509311678 408.23601386453043Q785.6243509311678 412.75314776723604 783.6383696463574 414.70018824254015L783.6383696463574 414.70018824254015Q779.4327622197006 417.7765121935208 747.5012984247126 417.7765121935208L747.5012984247126 417.7765121935208Q741.3097097132454 417.7765121935208 727.1741958625373 417.6596897650025Q712.9997412023231 417.5039265269782 712.1430433931894 417.5039265269782L712.1430433931894 417.5039265269782Q705.7178098246857 417.23134086043564 703.4592428733329 414.4276025759976Q701.2396167314862 411.62386429155964 701.2396167314862 405.1596899135499L701.2396167314862 405.1596899135499Q701.2396167314862 401.81078029602673 701.5122023980286 389.1939580160559Q701.7847880645713 376.57713573608504 701.7847880645713 368.71109221585635ZM813.0776216329562 367.0366374070948L813.0776216329562 367.0366374070948L813.0776216329562 323.3061083317637Q813.0776216329562 294.1394420117076 811.4031668241946 272.83881921188026L811.4031668241946 272.83881921188026Q816.4654720599854 271.9821214027465 822.0729486288612 271.9821214027465L822.0729486288612 271.9821214027465Q835.2349422419175 271.9821214027465 835.2349422419175 280.39333625606037L835.2349422419175 280.39333625606037Q835.2349422419175 281.52261973173677 834.8065933373505 289.07713677591687Q834.4171852422896 296.670594629603 833.8330730996984 307.88554776735486Q833.2879017666132 319.1005009051068 833.2879017666132 329.18617056718216L833.2879017666132 329.18617056718216L833.2879017666132 373.18928530905583Q833.2879017666132 402.62853729565455 837.7660948598127 416.3746430513018L837.7660948598127 416.3746430513018Q833.5604874331557 418.04909786006334 825.4218582463843 418.04909786006334L825.4218582463843 418.04909786006334Q817.8673412022044 418.04909786006334 815.1804253462847 415.2453595756254Q812.532450299871 412.44162129118735 812.532450299871 405.7438020561411L812.532450299871 405.7438020561411Q812.532450299871 402.355951629112 812.8050359664135 388.6098458734646Q813.0776216329562 374.9026809273235 813.0776216329562 367.0366374070948ZM947.9685857620273 358.3528368872383L947.9685857620273 358.3528368872383Q942.6336948596938 345.73601460726746 925.2271530104749 298.61763510490715L925.2271530104749 298.61763510490715Q911.208461588285 338.99925456271507 903.1087732110198 358.08025122069574L903.1087732110198 358.08025122069574Q919.9312029176476 358.6254225537809 928.8875891040466 358.6254225537809L928.8875891040466 358.6254225537809Q942.0495827171026 358.6254225537809 947.9685857620273 358.3528368872383ZM924.4093960108471 373.50081178510453L924.4093960108471 373.50081178510453Q918.5293337754285 373.50081178510453 897.1897701660953 372.91669964251327L897.1897701660953 372.91669964251327Q895.7879010238762 376.3045500695425 891.1928855021583 387.7920888738369Q886.5589291709346 399.27962767813136 883.7551908864966 406.98990796033576Q880.9514526020587 414.70018824254015 878.9654713172483 421.9821196201777L878.9654713172483 421.9821196201777Q862.4545680866693 419.762493478331 862.4545680866693 413.2983191003212L862.4545680866693 413.2983191003212Q862.4545680866693 410.49458081588324 865.1025431330829 404.0304064378735Q867.7505181794966 397.6051728693698 874.3704557955307 382.6129612095279Q880.9514526020587 367.58180874017995 886.831514837477 352.47277465181975L886.831514837477 352.47277465181975Q908.7162497798956 296.0864824870118 915.414069014942 273.38399054496546L915.414069014942 273.38399054496546Q919.9312029176476 272.5662335453377 925.8112651530662 272.5662335453377L925.8112651530662 272.5662335453377Q931.9639130550272 272.5662335453377 934.4950656729225 274.3575107826175Q937.026218290818 276.18772882940345 940.1025422417986 284.3263580161747L940.1025422417986 284.3263580161747Q942.3611091931514 290.2064202515933 952.2910156172024 316.9976971917783Q962.2598628507596 343.7500333224572 967.8673394196355 358.08025122069574L967.8673394196355 358.08025122069574Q981.3019186992342 391.1409984913601 994.2302674552536 415.556886051674L994.2302674552536 415.556886051674Q986.3642239350249 419.4509670022823 981.6134451752828 419.4509670022823L981.6134451752828 419.4509670022823Q973.202230321969 419.4509670022823 970.0869655614824 413.84349043340643L970.0869655614824 413.84349043340643Q968.4125107527207 409.9494094827981 953.5760623309031 372.91669964251327L953.5760623309031 372.91669964251327Q929.4327604371317 373.50081178510453 924.4093960108471 373.50081178510453ZM1037.3766843879935 288.53196544283173L1037.3766843879935 288.53196544283173Q1038.2333821971272 295.268725487384 1038.2333821971272 331.9899088516202L1038.2333821971272 331.9899088516202L1056.1850953794315 331.9899088516202Q1074.9545655613636 331.9899088516202 1083.0931947481347 331.1332110424864L1083.0931947481347 331.1332110424864Q1083.9498925572684 333.3917779938392 1083.9498925572684 337.3247997539535L1083.9498925572684 337.3247997539535Q1083.9498925572684 342.9322763228295 1081.5355623678913 345.0350800361579Q1079.1601729880203 347.13788374948643 1074.1368085617357 347.410469416029L1074.1368085617357 347.410469416029Q1068.217805516811 347.68305508257157 1058.1321358547357 347.68305508257157L1058.1321358547357 347.68305508257157L1038.2333821971272 347.68305508257157Q1038.2333821971272 392.81545330012165 1039.907837005889 402.0833659625693L1039.907837005889 402.0833659625693Q1049.9935066679643 402.62853729565455 1056.1850953794315 402.62853729565455L1056.1850953794315 402.62853729565455Q1093.1788644102103 402.62853729565455 1104.6664032145045 397.6051728693698L1104.6664032145045 397.6051728693698Q1106.6523844993148 402.62853729565455 1106.6523844993148 408.23601386453043L1106.6523844993148 408.23601386453043Q1106.6523844993148 412.75314776723604 1104.393817547962 414.70018824254015L1104.393817547962 414.70018824254015Q1100.1882101213052 417.7765121935208 1066.270765041507 417.7765121935208L1066.270765041507 417.7765121935208Q1059.5340049969545 417.7765121935208 1044.697556575137 417.6596897650025Q1029.8221673438134 417.5039265269782 1029.2769960107282 417.5039265269782L1029.2769960107282 417.5039265269782Q1022.2676502996333 417.23134086043564 1019.8533201102562 414.4276025759976Q1017.4779307303852 411.62386429155964 1017.4779307303852 405.1596899135499L1017.4779307303852 405.1596899135499Q1017.4779307303852 401.2266681534356 1017.7505163969277 387.9089113023552Q1018.0620428729762 374.5911544512748 1018.0620428729762 367.0366374070948L1018.0620428729762 367.0366374070948L1018.0620428729762 324.1238653313914Q1018.0620428729762 292.1924015364035 1014.6741924459473 273.96810268755667L1014.6741924459473 273.96810268755667Q1042.1664039572418 271.9821214027465 1065.9981793749644 271.9821214027465L1065.9981793749644 271.9821214027465Q1099.9156244547626 271.9821214027465 1104.1212318814196 275.3699718297757L1104.1212318814196 275.3699718297757Q1106.3797988327724 277.31701230507986 1106.3797988327724 281.79520539827934L1106.3797988327724 281.79520539827934Q1106.3797988327724 287.40268196715533 1104.393817547962 292.4649872029461L1104.393817547962 292.4649872029461Q1090.9592382683634 287.98679410974654 1062.3377432813927 287.98679410974654L1062.3377432813927 287.98679410974654Q1051.3953758101834 287.98679410974654 1037.3766843879935 288.53196544283173Z " fill="#ffffff" transform="matrix(0.7906728401949039,0,0,0.7906728401949039,0,25.6506776869077)"/></g></svg>