<svg xmlns="http://www.w3.org/2000/svg" version="1.1" xmlns:xlink="http://www.w3.org/1999/xlink" xmlns:svgjs="http://svgjs.dev/svgjs" width="100%" height="100%" viewBox="0 0 1000 600"><rect width="1000" height="600" x="0" y="0" fill="#000000"/><g><rect width="333.3333333333333" height="333.3333333333333" rx="13.333333333333334" ry="13.333333333333334" y="160.92003963022555" fill="#ffffff" transform="matrix(0.9012399310017515,0,0,0.9012399310017515,0,4.765781295713381)" x="138.6977996826172"/><path d="M270.301370004404 328.4767114264157L270.301370004404 328.4767114264157Q270.301370004404 338.50684889994216 271.23374898081636 346.61572060389176Q272.1943818656048 354.6963383994653 274.7089797110805 362.4096553861491Q277.25183146493225 370.0947184644567 281.3769020878474 375.26518369728865Q285.5019727107625 380.4356489301206 292.19814899590557 383.5718327598712Q298.8943252810486 386.6797626812456 307.8508142362822 386.6797626812456L307.8508142362822 386.6797626812456Q318.7850767778449 386.6797626812456 326.6114093980332 382.1308834326885Q334.46599592659754 377.5537502757553 338.449797007632 369.61440202206245L338.449797007632 369.61440202206245Q341.13391830336445 364.0483820719646 341.13391830336445 356.787127619299L341.13391830336445 356.787127619299L341.13391830336445 339.6935130517397L307.5400212441447 339.6935130517397L307.5400212441447 324.12560953649154L358.5948336798135 324.12560953649154L358.5948336798135 400.29814651854076L344.2135943163628 400.29814651854076L342.4053441802904 386.6797626812456Q336.95233986369715 393.94101713391126 327.76981964145455 398.26386511545934Q318.58729941921194 402.5867130970073 307.1444665268789 402.5867130970073L307.1444665268789 402.5867130970073Q280.9248395538293 402.5867130970073 266.11979156473666 382.2156451578169L266.11979156473666 382.2156451578169Q251.73855220128598 362.3531475693968 251.73855220128598 328.4767114264157L251.73855220128598 328.4767114264157Q251.73855220128598 303.3589868800352 259.9604395387401 285.1634698858069Q268.2105807845703 266.9962067999546 284.0045155668276 258.35051083685846L284.0045155668276 258.35051083685846Q294.54322339112446 252.58671352812777 308.246368953548 252.58671352812777L308.246368953548 252.58671352812777Q335.17234363600085 252.58671352812777 350.7685010596252 274.0596838939873L350.7685010596252 274.0596838939873Q355.71293502544813 280.8971297210111 358.9903883970793 289.54282568410713L358.9903883970793 289.54282568410713L341.7272503792633 294.5155135583062Q337.74344929822877 281.8860165141756 329.86060886128826 275.1333324122803Q321.94951451597154 268.380648310385 308.246368953548 268.380648310385L308.246368953548 268.380648310385Q289.57053551692536 268.380648310385 279.6251597685273 285.1634698858069L279.6251597685273 285.1634698858069Q270.301370004404 300.75962730943115 270.301370004404 328.4767114264157Z " fill="#212529" transform="matrix(0.9012399310017515,0,0,0.9012399310017515,0,4.765781295713381)"/><path d="M577.308757880056 278.169428658631Q573.8693036745312 282.5753410706668 568.0705544354646 282.5753410706668Q562.2718051963982 282.5753410706668 558.8323509908734 278.169428658631Q555.3644715439806 273.76351624659503 555.3644715439806 267.56681362837685L555.3644715439806 267.56681362837685Q555.3644715439806 263.075625492237 557.4679394052106 259.43719459713645Q559.5714072664407 255.7703384606679 562.8687352651256 253.97954825448556L562.8687352651256 253.97954825448556Q565.1711798159314 252.58671142745487 568.0705544354646 252.58671142745487L568.0705544354646 252.58671142745487Q573.8693036745312 252.58671142745487 577.308757880056 256.99262383949076Q580.7482120855808 261.37011101015867 580.7482120855808 267.56681362837685Q580.7482120855808 273.76351624659503 577.308757880056 278.169428658631ZM576.8539540181685 294.5423676865836L576.8539540181685 400.1989898513408L559.5714072664407 400.1989898513408L559.5714072664407 294.5423676865836L576.8539540181685 294.5423676865836ZM636.4048346840727 402.07505578162704L636.4048346840727 402.07505578162704Q626.9108040671697 402.07505578162704 620.3161480697999 398.6924520588383Q613.72149207243 395.2814230946815 610.2820378669053 388.5446408904718Q606.8425836613804 381.8078586862621 606.8425836613804 372.00115041431116L606.8425836613804 372.00115041431116L606.8425836613804 310.6594795422245L593.0563415979134 310.6594795422245L593.0563415979134 294.9687463071033L606.8425836613804 294.9687463071033L606.8425836613804 266.372953490922L624.1251304131083 266.372953490922L624.1251304131083 294.9687463071033L651.100684471315 294.9687463071033L651.100684471315 310.6594795422245L624.1251304131083 310.6594795422245L624.1251304131083 372.00115041431116Q624.1251304131083 378.7947831012568 628.4173418596722 382.2058120654136Q632.7095533062362 385.5884157882025 639.3042093036061 385.5884157882025L639.3042093036061 385.5884157882025Q641.0097237856844 385.5884157882025 642.8573644746027 385.3325886158907Q644.705005163521 385.10518668494694 646.5526458524394 384.59353234032346Q648.4002865413576 384.08187799569987 650.2195019889078 383.3996722028686L650.2195019889078 383.3996722028686L655.1939192283032 399.09040543798983Q645.2166595081445 402.07505578162704 636.4048346840727 402.07505578162704ZM688.9915312148236 253.97954825448556L688.9915312148236 303.24049154518354Q698.8835152108784 291.2450396878987 716.365038652182 291.2450396878987L716.365038652182 291.2450396878987Q730.3502574052249 291.2450396878987 739.844288022128 297.6975694784287Q749.3383186390312 304.1500992689587 754.0284834647467 315.3496443679402L754.0284834647467 315.3496443679402Q757.6384891184795 323.8487915369642 757.6384891184795 335.9295191183529L757.6384891184795 335.9295191183529L757.6384891184795 400.085288885869L740.2422414012797 400.085288885869L740.2422414012797 336.4411734629765Q740.2422414012797 323.45083815781265 733.5623096798059 315.6338967816199Q726.8539527169643 307.8453806467952 714.7732251355754 307.8453806467952L714.7732251355754 307.8453806467952Q705.9614003115038 307.8453806467952 699.9636743828613 312.1375920933592Q693.965948454219 316.4298035399231 691.1802748001576 323.7350905714924L691.1802748001576 323.7350905714924Q688.9915312148236 329.13588643140724 688.9915312148236 336.4411734629765L688.9915312148236 336.4411734629765L688.9915312148236 400.085288885869L671.6805592217278 400.085288885869L671.6805592217278 253.97954825448556L688.9915312148236 253.97954825448556ZM847.5759528067473 400.1989898513408L846.780046048444 390.27858061391817Q836.7743610869175 402.58671012625064 819.0938609560379 402.58671012625064L819.0938609560379 402.58671012625064Q805.1939179270989 402.58671012625064 795.6998873101958 396.1910308184566Q786.2058566932927 389.7953515106626 781.5156918675771 378.595806411681L781.5156918675771 378.595806411681Q777.9341114552125 370.096659242657 777.9341114552125 357.90223069579633L777.9341114552125 357.90223069579633L777.9341114552125 294.34339099700776L795.2166582069402 294.34339099700776L795.2166582069402 357.02104821338924Q795.2166582069402 369.89768255308115 801.95344041115 377.68619868790586Q808.6902226153596 385.5031400640986 820.7993754381163 385.5031400640986L820.7993754381163 385.5031400640986Q829.5827750208201 385.5031400640986 835.4952252253586 381.2109286175346Q841.3792501885291 376.89029192960265 844.3639005321662 369.6987058635053L844.3639005321662 369.6987058635053Q846.4673683933963 364.29791000359035 846.4673683933963 357.02104821338924L846.4673683933963 357.02104821338924L846.4673683933963 294.34339099700776L863.8636161105961 294.34339099700776L863.8636161105961 400.1989898513408L847.5759528067473 400.1989898513408ZM925.4326889136265 401.98978005752315L925.4326889136265 401.98978005752315Q908.8323479547299 401.98978005752315 901.1291075440092 390.4775573034939L901.1291075440092 390.4775573034939L900.4469017511778 399.6873355067173L884.0455374818572 399.6873355067173L884.0455374818572 254.09324921995747L901.4417851990569 254.09324921995747L901.4417851990569 302.1603323732005Q911.9306992638391 291.0460629983229 927.3087548439127 291.0460629983229L927.3087548439127 291.0460629983229Q937.0017621503918 291.0460629983229 944.7050025611125 294.9687463071033Q952.4082429718333 298.86300437451564 958.008015521324 305.34395940641355L958.008015521324 305.34395940641355Q970.8846498610159 320.75044022785517 970.8846498610159 346.61740987271094L970.8846498610159 346.61740987271094Q970.8846498610159 359.12451607461924 967.701022827803 369.35760296708963Q964.488970553222 379.59068985956014 958.4059689004756 386.8959768911293Q952.2945420063614 394.20126392269844 943.8238200787052 398.0955219901108L943.8238200787052 398.0955219901108Q935.4099486337851 401.98978005752315 925.4326889136265 401.98978005752315ZM901.4417851990569 336.0147948424568L901.4417851990569 357.81695497169244Q901.4417851990569 367.50996227817143 905.4497442319412 374.24674448238113Q909.4292780234574 381.01195192795876 916.4218873999789 383.88290130612404L916.4218873999789 383.88290130612404Q920.7140988465429 385.5884157882025 925.2337122240507 385.5884157882025L925.2337122240507 385.5884157882025Q936.9164864262879 385.5884157882025 944.7050025611125 375.49745510257196L944.7050025611125 375.49745510257196Q953.0051730405606 364.6105876586381 953.0051730405606 346.61740987271094L953.0051730405606 346.61740987271094Q953.0051730405606 333.14384546429153 948.8550878008365 323.53611388191655Q944.7050025611125 313.9568075409095 936.4048320816643 309.8351475425534L936.4048320816643 309.8351475425534Q931.316713876797 307.3337263021716 925.4326889136265 307.3337263021716L925.4326889136265 307.3337263021716Q920.0318930537115 307.3337263021716 915.5407049175718 309.80672230118535Q911.0210915400639 312.25129305883104 908.2354178860027 315.8044482298277Q905.4497442319412 319.32917815945643 903.6305287843909 323.8487915369642L903.6305287843909 323.8487915369642Q901.4417851990569 329.13588643140724 901.4417851990569 336.0147948424568L901.4417851990569 336.0147948424568Z " fill="#ffffff" transform="matrix(0.9012399310017515,0,0,0.9012399310017515,0,4.765781295713381)"/></g></svg>