<svg xmlns="http://www.w3.org/2000/svg" version="1.1" xmlns:xlink="http://www.w3.org/1999/xlink" xmlns:svgjs="http://svgjs.dev/svgjs" width="100%" height="100%" viewBox="0 0 1000 600"><rect width="1000" height="600" x="0" y="0" fill="#000000"/><g><rect width="333.3333333333333" height="333.3333333333333" rx="13.333333333333334" ry="13.333333333333334" y="150.49272265500284" fill="#ffffff" transform="matrix(0.9745032138861044,0,0,0.9745032138861041,0,-9.07284494832129)" x="128.27052307128903"/><path d="M336.44799396237204 392.1593870469685L253.42637214310705 392.1593870469685L253.42637214310705 242.15939239780027L271.71976716558504 242.15939239780027L271.71976716558504 376.02847003034253L336.44799396237204 376.02847003034253L336.44799396237204 392.1593870469685Z " fill="#212529" transform="matrix(0.9745032138861044,0,0,0.9745032138861041,0,-9.07284494832129)"/><path d="M566.8814695511425 267.7421090333187Q563.4420153456177 272.1480214453545 557.6432661065511 272.1480214453545Q551.8445168674847 272.1480214453545 548.4050626619597 267.7421090333187Q544.9371832150671 263.3361966212828 544.9371832150671 257.1394940030646L544.9371832150671 257.1394940030646Q544.9371832150671 252.64830586692477 547.0406510762971 249.00987497182422Q549.1441189375272 245.34301883535562 552.4414469362121 243.5522286291733L552.4414469362121 243.5522286291733Q554.7438914870179 242.1593918021426 557.6432661065511 242.1593918021426L557.6432661065511 242.1593918021426Q563.4420153456177 242.1593918021426 566.8814695511425 246.56530421417847Q570.3209237566673 250.9427913848464 570.3209237566673 257.1394940030646Q570.3209237566673 263.3361966212828 566.8814695511425 267.7421090333187ZM566.426665689255 284.11504806127135L566.426665689255 389.7716702260285L549.1441189375272 389.7716702260285L549.1441189375272 284.11504806127135L566.426665689255 284.11504806127135ZM605.5966482943223 283.1201646133923L606.3072793285216 293.21112529902285Q616.1992633245765 280.81772006258643 633.9934644209278 280.81772006258643L633.9934644209278 280.81772006258643Q647.9786831739707 280.81772006258643 657.4727137908739 287.2702498531164Q666.9667444077769 293.7227796436464 671.6569092334926 304.9223247426279L671.6569092334926 304.9223247426279Q675.2669148872252 313.4214719116519 675.2669148872252 325.5021994930406L675.2669148872252 325.5021994930406L675.2669148872252 389.6579692605567L657.8706671700254 389.6579692605567L657.8706671700254 326.49708294091965Q657.8706671700254 313.5067476357559 651.1623102071837 305.71823150093115Q644.48237848571 297.92971536610645 632.3732256629532 297.92971536610645L632.3732256629532 297.92971536610645Q623.5898260802495 297.92971536610645 617.592100151607 302.2219268126704Q611.5943742229647 306.5141382592344 608.8087005689033 313.81942529080357L608.8087005689033 313.81942529080357Q606.5915317422014 319.1917959093505 606.5915317422014 326.49708294091965L606.5915317422014 326.49708294091965L606.5915317422014 389.6579692605567L589.3089849904735 389.6579692605567L589.3089849904735 283.1201646133923L605.5966482943223 283.1201646133923ZM764.8917009204454 389.7716702260285L764.095794162142 379.8512609886059Q754.1185344419835 392.15939050093834 736.409609069736 392.15939050093834L736.409609069736 392.15939050093834Q722.5380912821649 392.15939050093834 713.0440606652619 385.76371119314433Q703.5500300483587 379.3680318853503 698.8314399812751 368.1684867863687L698.8314399812751 368.1684867863687Q695.2498595689104 359.6693396173447 695.2498595689104 347.47491107048404L695.2498595689104 347.47491107048404L695.2498595689104 283.9160713716955L712.5324063206383 283.9160713716955L712.5324063206383 346.59372858807694Q712.5324063206383 359.47036292776886 719.269188524848 367.25887906259356Q726.0343959704256 375.0758204387863 738.1151235518143 375.0758204387863L738.1151235518143 375.0758204387863Q746.8985231345182 375.0758204387863 752.8109733390567 370.7836089922223Q758.6949983022271 366.46297230429036 761.7080738872323 359.27138623819303L761.7080738872323 359.27138623819303Q763.8115417484623 353.87059037827805 763.8115417484623 346.59372858807694L763.8115417484623 346.59372858807694L763.8115417484623 283.9160713716955L781.1793642242941 283.9160713716955L781.1793642242941 389.7716702260285L764.8917009204454 389.7716702260285ZM848.0355319217675 323.00077825265896L874.8121092903986 284.11504806127135L896.0173393509067 284.11504806127135L858.8371236415974 337.49765135032544L897.8934052811929 389.7716702260285L875.8354179796456 389.7716702260285L848.0355319217675 351.88082348252L820.5483235189373 389.7716702260285L798.3766352519181 389.7716702260285L837.2623654433056 337.49765135032544L800.3664021476761 284.11504806127135L821.4579312427124 284.11504806127135L848.0355319217675 323.00077825265896Z " fill="#ffffff" transform="matrix(0.9745032138861044,0,0,0.9745032138861041,0,-9.07284494832129)"/></g></svg>