<svg xmlns="http://www.w3.org/2000/svg" version="1.1" xmlns:xlink="http://www.w3.org/1999/xlink" xmlns:svgjs="http://svgjs.dev/svgjs" width="100%" height="100%" viewBox="0 0 1000 600"><rect width="1000" height="600" x="0" y="0" fill="#000000"/><g><rect width="333.3333333333333" height="333.3333333333333" rx="13.333333333333334" ry="13.333333333333334" y="137.31404765736434" fill="#ffffff" transform="matrix(1.0860893764584825,0,0,1.0860893764584825,0,-30.150225393391224)" x="115.09181976318358"/><path d="M335.071912948031 378.98071263699535L311.02140480468324 378.98071263699535L245.15414013370756 253.32488315545066L245.68272273026466 270.88557164106965L245.68272273026466 378.98071263699535L228.44505694254164 378.98071263699535L228.44505694254164 228.98071801401562L252.08444528856722 228.98071801401562L318.24536695763015 353.696845101681L317.834247160308 338.30921840190786L317.834247160308 228.98071801401562L335.071912948031 228.98071801401562L335.071912948031 378.98071263699535Z " fill="#212529" transform="matrix(1.0860893764584825,0,0,1.0860893764584825,0,-30.150225393391224)"/><path d="M566.1597216734641 259.58168753910786L566.1597216734641 259.58168753910786Q572.6776183294991 259.58168753910786 577.8035573945841 262.1004679417789Q582.9294964596692 264.6413429093858 585.9564518558617 268.8172156822352L585.9564518558617 268.8172156822352L586.4425322844473 261.5922929482575L599.10271799261 261.5922929482575L599.10271799261 336.1614496062838Q599.10271799261 350.61129507423914 593.6895495833606 360.86317320440924Q588.2984757390471 371.1371458995151 578.355921517977 375.86538279575734L578.355921517977 375.86538279575734Q571.838024861942 378.9807164516926 563.8397923552144 378.9807164516926L563.8397923552144 378.9807164516926Q541.060295906496 378.9807164516926 531.7584840685614 357.15128629520973L531.7584840685614 357.15128629520973L544.4186697767241 353.3289265613316Q546.9816393092666 359.4049319186522 551.7982544652517 362.89587317849464Q556.6148696212368 366.38681443833707 563.5967521409217 366.38681443833707L563.5967521409217 366.38681443833707Q574.7103183035846 366.38681443833707 580.189770407641 358.5874330160309Q585.6471279467618 350.7659570287891 585.6471279467618 338.10577132062645L585.6471279467618 338.10577132062645L585.6471279467618 334.85787027507683Q578.8199073816269 344.800424496147 565.6073575500715 344.800424496147L565.6073575500715 344.800424496147Q551.1575120821161 344.800424496147 541.7673219844387 333.77523659322696L541.7673219844387 333.77523659322696Q531.9131460231114 322.1976845669142 531.9131460231114 302.84284568323085L531.9131460231114 302.84284568323085Q531.9131460231114 288.70232412437554 537.458881821975 278.22950034484825Q543.0046176208385 267.73458200038533 552.6378479328088 262.8516831495931L552.6378479328088 262.8516831495931Q558.9347989394865 259.58168753910786 566.1597216734641 259.58168753910786ZM585.6471279467618 311.1504020990584L585.6471279467618 292.7456295076107Q585.6471279467618 288.01739261136845 584.1888866610047 284.1729383125547Q582.7085508103121 280.3284840137409 580.1013921478981 277.721325351327Q577.4942334854842 275.114166688913 574.0916704853846 273.7222090979632L574.0916704853846 273.7222090979632Q570.7332966151565 272.3965352018205 567.2423553553141 272.3965352018205L567.2423553553141 272.3965352018205Q563.1990499720788 272.3965352018205 559.818581536915 273.76639822783454Q556.4602076666869 275.114166688913 554.1181837835014 277.5666633967769Q551.7982544652517 280.01916010464095 550.1632566600091 282.9356426761549Q548.5282588547665 285.8300306827331 547.4456251729165 289.40935020231836L547.4456251729165 289.40935020231836Q545.7222491079311 295.1539370856033 545.7222491079311 302.84284568323085L545.7222491079311 302.84284568323085Q545.7222491079311 312.4760759952011 549.1469066729663 319.6568095993073Q552.5715642380015 326.8596377683492 558.6917587251937 330.1959170736417L558.6917587251937 330.1959170736417Q562.5804021538789 332.2949007425343 567.0214097059569 332.2949007425343L567.0214097059569 332.2949007425343Q573.0753204983419 332.2949007425343 577.3837606608056 328.870243177499Q581.6922008232693 325.4455856124637 584.0342247064548 320.16498459282866L584.0342247064548 320.16498459282866Q585.6471279467618 316.21005746933633 585.6471279467618 311.1504020990584L585.6471279467618 311.1504020990584ZM630.7421349805488 248.86582354528775Q628.0686926233277 252.29048111032301 623.5614013764426 252.29048111032301Q619.0541101295574 252.29048111032301 616.3806677723363 248.86582354528775Q613.7072254151153 245.44116598025246 613.7072254151153 240.62455082426737L613.7072254151153 240.62455082426737Q613.7072254151153 237.13360956442494 615.3201286554222 234.3055052526539Q616.9551264606649 231.4553063759471 619.5180959932073 230.0633487849973L619.5180959932073 230.0633487849973Q621.307755753 228.98071510314742 623.5614013764426 228.98071510314742L623.5614013764426 228.98071510314742Q628.0686926233277 228.98071510314742 630.7421349805488 232.4053726681827Q633.4376719027056 235.80793566828228 633.4376719027056 240.62455082426737Q633.4376719027056 245.44116598025246 630.7421349805488 248.86582354528775ZM630.3886219415774 261.5922929482575L630.3886219415774 343.71779081429713L616.9551264606649 343.71779081429713L616.9551264606649 261.5922929482575L630.3886219415774 261.5922929482575ZM660.8570269879236 260.8189831755077L661.3872965463806 268.66255372768524Q669.0762051440082 259.029323415715 682.9074027937636 259.029323415715L682.9074027937636 259.029323415715Q693.7779287421337 259.029323415715 701.1575134306613 264.04478965612157Q708.537098119189 269.060255896528 712.1827013335813 277.76551448119835L712.1827013335813 277.76551448119835Q714.9887110804167 284.37178939697606 714.9887110804167 293.7619794946535L714.9887110804167 293.7619794946535L714.9887110804167 343.6294125545543L701.4668373397612 343.6294125545543L701.4668373397612 294.5352892674034Q701.4668373397612 284.4380730917833 696.2746145798691 278.3841622993983Q691.0602972550412 272.3302515070134 681.6701071573638 272.3302515070134L681.6701071573638 272.3302515070134Q674.8207920272932 272.3302515070134 670.1588388258581 275.6665308123057Q665.496885624423 279.0028101175982 663.3316182607233 284.6811133060761L663.3316182607233 284.6811133060761Q661.6303367606735 288.8569860789255 661.6303367606735 294.5352892674034L661.6303367606735 294.5352892674034L661.6303367606735 343.6294125545543L648.1747467148251 343.6294125545543L648.1747467148251 260.8189831755077L660.8570269879236 260.8189831755077ZM766.8667495494673 291.8176577803108L787.7019242838431 261.5922929482575L804.1623751609483 261.5922929482575L775.2626842250376 303.08588589752367L805.6427110116409 343.71779081429713L788.475234056593 343.71779081429713L766.8667495494673 314.26573575499367L745.5233998215699 343.71779081429713L728.2675446067793 343.71779081429713L758.4929094388326 303.08588589752367L729.8141641522791 261.5922929482575L746.208331334577 261.5922929482575L766.8667495494673 291.8176577803108Z " fill="#ffffff" transform="matrix(1.0860893764584825,0,0,1.0860893764584825,0,-30.150225393391224)"/></g></svg>